{
	"asset":{
		"generator":"Khronos glTF Blender I/O v4.4.56",
		"version":"2.0"
	},
	"scene":0,
	"scenes":[
		{
			"name":"Scene",
			"nodes":[
				0,
				1,
				2
			]
		}
	],
	"nodes":[
		{
			"mesh":0,
			"name":"X"
		},
		{
			"mesh":1,
			"name":"Y"
		},
		{
			"mesh":2,
			"name":"Z"
		}
	],
	"materials":[
		{
			"doubleSided":true,
			"name":"X",
			"pbrMetallicRoughness":{
				"baseColorTexture":{
					"index":0
				},
				"metallicFactor":0,
				"roughnessFactor":0.5
			}
		},
		{
			"doubleSided":true,
			"name":"Y",
			"pbrMetallicRoughness":{
				"baseColorTexture":{
					"index":1
				},
				"metallicFactor":0,
				"roughnessFactor":0.5
			}
		},
		{
			"doubleSided":true,
			"name":"Z",
			"pbrMetallicRoughness":{
				"baseColorTexture":{
					"index":2
				},
				"metallicFactor":0,
				"roughnessFactor":0.5
			}
		}
	],
	"meshes":[
		{
			"name":"X",
			"primitives":[
				{
					"attributes":{
						"POSITION":0,
						"NORMAL":1,
						"TEXCOORD_0":2
					},
					"indices":3,
					"material":0
				}
			]
		},
		{
			"name":"Y",
			"primitives":[
				{
					"attributes":{
						"POSITION":4,
						"NORMAL":5,
						"TEXCOORD_0":6
					},
					"indices":7,
					"material":1
				}
			]
		},
		{
			"name":"Z",
			"primitives":[
				{
					"attributes":{
						"POSITION":8,
						"NORMAL":9,
						"TEXCOORD_0":10
					},
					"indices":11,
					"material":2
				}
			]
		}
	],
	"textures":[
		{
			"sampler":0,
			"source":0
		},
		{
			"sampler":0,
			"source":1
		},
		{
			"sampler":0,
			"source":2
		}
	],
	"images":[
		{
			"mimeType":"image/png",
			"name":"red",
			"uri":"tex/red.png"
		},
		{
			"mimeType":"image/png",
			"name":"green",
			"uri":"tex/green.png"
		},
		{
			"mimeType":"image/png",
			"name":"blue",
			"uri":"tex/blue.png"
		}
	],
	"accessors":[
		{
			"bufferView":0,
			"componentType":5126,
			"count":648,
			"max":[
				4.402742385864258,
				0.9999997615814209,
				1.25
			],
			"min":[
				-5.01801872253418,
				-0.9999997615814209,
				-1.25
			],
			"type":"VEC3"
		},
		{
			"bufferView":1,
			"componentType":5126,
			"count":648,
			"type":"VEC3"
		},
		{
			"bufferView":2,
			"componentType":5126,
			"count":648,
			"type":"VEC2"
		},
		{
			"bufferView":3,
			"componentType":5123,
			"count":948,
			"type":"SCALAR"
		},
		{
			"bufferView":4,
			"componentType":5126,
			"count":648,
			"max":[
				1.063317060470581,
				0.9999997615814209,
				4.8870768547058105
			],
			"min":[
				-1.4366827011108398,
				-0.9999997615814209,
				-4.533684253692627
			],
			"type":"VEC3"
		},
		{
			"bufferView":5,
			"componentType":5126,
			"count":648,
			"type":"VEC3"
		},
		{
			"bufferView":6,
			"componentType":5126,
			"count":648,
			"type":"VEC2"
		},
		{
			"bufferView":7,
			"componentType":5123,
			"count":948,
			"type":"SCALAR"
		},
		{
			"bufferView":8,
			"componentType":5126,
			"count":648,
			"max":[
				1.063317060470581,
				4.514862060546875,
				1.0072386264801025
			],
			"min":[
				-1.4366827011108398,
				-4.9058990478515625,
				-0.9927611351013184
			],
			"type":"VEC3"
		},
		{
			"bufferView":9,
			"componentType":5126,
			"count":648,
			"type":"VEC3"
		},
		{
			"bufferView":10,
			"componentType":5126,
			"count":648,
			"type":"VEC2"
		},
		{
			"bufferView":11,
			"componentType":5123,
			"count":948,
			"type":"SCALAR"
		}
	],
	"bufferViews":[
		{
			"buffer":0,
			"byteLength":7776,
			"byteOffset":0,
			"target":34962
		},
		{
			"buffer":0,
			"byteLength":7776,
			"byteOffset":7776,
			"target":34962
		},
		{
			"buffer":0,
			"byteLength":5184,
			"byteOffset":15552,
			"target":34962
		},
		{
			"buffer":0,
			"byteLength":1896,
			"byteOffset":20736,
			"target":34963
		},
		{
			"buffer":0,
			"byteLength":7776,
			"byteOffset":22632,
			"target":34962
		},
		{
			"buffer":0,
			"byteLength":7776,
			"byteOffset":30408,
			"target":34962
		},
		{
			"buffer":0,
			"byteLength":5184,
			"byteOffset":38184,
			"target":34962
		},
		{
			"buffer":0,
			"byteLength":1896,
			"byteOffset":43368,
			"target":34963
		},
		{
			"buffer":0,
			"byteLength":7776,
			"byteOffset":45264,
			"target":34962
		},
		{
			"buffer":0,
			"byteLength":7776,
			"byteOffset":53040,
			"target":34962
		},
		{
			"buffer":0,
			"byteLength":5184,
			"byteOffset":60816,
			"target":34962
		},
		{
			"buffer":0,
			"byteLength":1896,
			"byteOffset":66000,
			"target":34963
		}
	],
	"samplers":[
		{
			"magFilter":9729,
			"minFilter":9987
		}
	],
	"buffers":[
		{
			"byteLength":67896,
			"uri":"axis.bin"
		}
	]
}
