{
  "accessors": [
    {
      "bufferView": 2,
      "componentType": 5126,
      "count": 65532,
      "max": [
        559.43780517578125,
        189.75889587402344,
        565.84625244140625
      ],
      "min": [
        -281.56195068359375,
        -126.80004119873047,
        -375.15347290039062
      ],
      "type": "VEC3"
    },
    {
      "bufferView": 2,
      "byteOffset": 786384,
      "componentType": 5126,
      "count": 65532,
      "max": [
        0.9992339015007019,
        0.47145584225654602,
        0.99925345182418823
      ],
      "min": [
        -0.99933981895446777,
        -0.99999791383743286,
        -0.9997934103012085
      ],
      "type": "VEC3"
    },
    {
      "bufferView": 1,
      "componentType": 5126,
      "count": 65532,
      "max": [
        0.36310911178588867,
        0.98531478643417358
      ],
      "min": [
        0.0014007576974108815,
        0.67312413454055786
      ],
      "type": "VEC2"
    },
    {
      "bufferView": 0,
      "componentType": 5125,
      "count": 361872,
      "max": [
        65531
      ],
      "min": [
        0
      ],
      "type": "SCALAR"
    },
    {
      "bufferView": 2,
      "byteOffset": 1572768,
      "componentType": 5126,
      "count": 65532,
      "max": [
        711.437744140625,
        190.54978942871094,
        833.84613037109375
      ],
      "min": [
        -583.56182861328125,
        -138.62203979492188,
        -564.15338134765625
      ],
      "type": "VEC3"
    },
    {
      "bufferView": 2,
      "byteOffset": 2359152,
      "componentType": 5126,
      "count": 65532,
      "max": [
        0.99994504451751709,
        0.43722188472747803,
        0.9999392032623291
      ],
      "min": [
        -1,
        -0.99999284744262695,
        -0.99855327606201172
      ],
      "type": "VEC3"
    },
    {
      "bufferView": 1,
      "byteOffset": 524256,
      "componentType": 5126,
      "count": 65532,
      "max": [
        0.73705297708511353,
        0.99859923124313354
      ],
      "min": [
        0.0069207083433866501,
        0.60983318090438843
      ],
      "type": "VEC2"
    },
    {
      "bufferView": 0,
      "byteOffset": 1447488,
      "componentType": 5125,
      "count": 339144,
      "max": [
        65531
      ],
      "min": [
        0
      ],
      "type": "SCALAR"
    },
    {
      "bufferView": 2,
      "byteOffset": 3145536,
      "componentType": 5126,
      "count": 65532,
      "max": [
        651.437744140625,
        216.33401489257812,
        838.38922119140625
      ],
      "min": [
        -586.56182861328125,
        -182.25979614257812,
        -560.1534423828125
      ],
      "type": "VEC3"
    },
    {
      "bufferView": 2,
      "byteOffset": 3931920,
      "componentType": 5126,
      "count": 65532,
      "max": [
        0.99966931343078613,
        0.65023231506347656,
        0.99993932247161865
      ],
      "min": [
        -1,
        -1,
        -0.99986743927001953
      ],
      "type": "VEC3"
    },
    {
      "bufferView": 1,
      "byteOffset": 1048512,
      "componentType": 5126,
      "count": 65532,
      "max": [
        0.95207995176315308,
        0.82827246189117432
      ],
      "min": [
        0.25847011804580688,
        0.27255493402481079
      ],
      "type": "VEC2"
    },
    {
      "bufferView": 0,
      "byteOffset": 2804064,
      "componentType": 5125,
      "count": 356802,
      "max": [
        65531
      ],
      "min": [
        0
      ],
      "type": "SCALAR"
    },
    {
      "bufferView": 2,
      "byteOffset": 4718304,
      "componentType": 5126,
      "count": 34633,
      "max": [
        724.23773193359375,
        22.263086318969727,
        248.84632873535156
      ],
      "min": [
        -282.56195068359375,
        -196.10556030273438,
        -557.74847412109375
      ],
      "type": "VEC3"
    },
    {
      "bufferView": 2,
      "byteOffset": 5133900,
      "componentType": 5126,
      "count": 34633,
      "max": [
        0.99999994039535522,
        0.97354954481124878,
        1
      ],
      "min": [
        -0.99997121095657349,
        -1,
        -0.99896717071533203
      ],
      "type": "VEC3"
    },
    {
      "bufferView": 1,
      "byteOffset": 1572768,
      "componentType": 5126,
      "count": 34633,
      "max": [
        0.95371198654174805,
        0.80389392375946045
      ],
      "min": [
        0.0014007576974108815,
        0.0015448927879333496
      ],
      "type": "VEC2"
    },
    {
      "bufferView": 0,
      "byteOffset": 4231272,
      "componentType": 5125,
      "count": 173040,
      "max": [
        34632
      ],
      "min": [
        0
      ],
      "type": "SCALAR"
    }
  ],
  "asset": {
    "extras": {
      "author": "roscommon3d (https://sketchfab.com/roscommon3d)",
      "license": "CC0-1.0 (http://creativecommons.org/publicdomain/zero/1.0/)",
      "source": "https://sketchfab.com/3d-models/crucifixion-plaque-396a62b37ca441708b589292beff69a2",
      "title": "Crucifixion Plaque"
    },
    "generator": "Sketchfab-7.80.0",
    "version": "2.0"
  },
  "bufferViews": [
    {
      "buffer": 0,
      "byteLength": 4923432,
      "byteOffset": 0,
      "name": "floatBufferViews",
      "target": 34963
    },
    {
      "buffer": 0,
      "byteLength": 1849832,
      "byteOffset": 4923432,
      "byteStride": 8,
      "name": "floatBufferViews",
      "target": 34962
    },
    {
      "buffer": 0,
      "byteLength": 5549496,
      "byteOffset": 6773264,
      "byteStride": 12,
      "name": "floatBufferViews",
      "target": 34962
    }
  ],
  "buffers": [
    {
      "byteLength": 12322760,
      "uri": "scene.bin"
    }
  ],
  "images": [
    {
      "uri": "textures/material_0_metallicRoughness.png"
    }
  ],
  "materials": [
    {
      "doubleSided": true,
      "emissiveFactor": [
        0,
        0,
        0
      ],
      "name": "material_0",
      "occlusionTexture": {
        "index": 0,
        "strength": 1,
        "texCoord": 0
      },
      "pbrMetallicRoughness": {
        "baseColorFactor": [
          1,
          1,
          1,
          1
        ],
        "metallicFactor": 1,
        "metallicRoughnessTexture": {
          "index": 0,
          "texCoord": 0
        },
        "roughnessFactor": 1
      }
    }
  ],
  "meshes": [
    {
      "primitives": [
        {
          "attributes": {
            "NORMAL": 1,
            "POSITION": 0,
            "TEXCOORD_0": 2
          },
          "indices": 3,
          "material": 0,
          "mode": 4
        }
      ]
    },
    {
      "primitives": [
        {
          "attributes": {
            "NORMAL": 5,
            "POSITION": 4,
            "TEXCOORD_0": 6
          },
          "indices": 7,
          "material": 0,
          "mode": 4
        }
      ]
    },
    {
      "primitives": [
        {
          "attributes": {
            "NORMAL": 9,
            "POSITION": 8,
            "TEXCOORD_0": 10
          },
          "indices": 11,
          "material": 0,
          "mode": 4
        }
      ]
    },
    {
      "primitives": [
        {
          "attributes": {
            "NORMAL": 13,
            "POSITION": 12,
            "TEXCOORD_0": 14
          },
          "indices": 15,
          "material": 0,
          "mode": 4
        }
      ]
    }
  ],
  "nodes": [
    {
      "children": [
        1
      ],
      "name": "RootNode (gltf orientation matrix)",
      "rotation": [
        -0.70710678118654746,
        -0,
        -0,
        0.70710678118654757
      ]
    },
    {
      "children": [
        2
      ],
      "matrix": [
        1,
        0,
        0,
        0,
        0,
        0.93295431137084961,
        0.3599947988986969,
        0,
        0,
        -0.3599947988986969,
        0.93295431137084961,
        0,
        0,
        50.039699554443359,
        5.5521903038024902,
        1
      ],
      "name": "RootNode (model correction matrix)"
    },
    {
      "children": [
        3,
        4,
        5,
        6
      ],
      "name": "0_SFusion.obj.cleaner.materialmerger.gles"
    },
    {
      "mesh": 0,
      "name": ""
    },
    {
      "mesh": 1,
      "name": ""
    },
    {
      "mesh": 2,
      "name": ""
    },
    {
      "mesh": 3,
      "name": ""
    }
  ],
  "samplers": [
    {
      "magFilter": 9729,
      "minFilter": 9987,
      "wrapS": 10497,
      "wrapT": 10497
    }
  ],
  "scene": 0,
  "scenes": [
    {
      "name": "OSG_Scene",
      "nodes": [
        0
      ]
    }
  ],
  "textures": [
    {
      "sampler": 0,
      "source": 0
    }
  ]
}

